<?xml version="1.0" encoding="utf-8"?>
<!-- Generator: Adobe Illustrator 24.2.3, SVG Export Plug-In . SVG Version: 6.00 Build 0)  -->
<svg version="1.1" id="Capa_1" xmlns="http://www.w3.org/2000/svg" xmlns:xlink="http://www.w3.org/1999/xlink" x="0px" y="0px"
	 viewBox="0 0 511.6 511.6" style="enable-background:new 0 0 511.6 511.6;" xml:space="preserve">
<style type="text/css">
	.st0{fill:#EEEEEE;}
	.st1{fill:url(#SVGID_1_);}
	.st2{fill:url(#SVGID_2_);}
</style>
<circle class="st0" cx="256.3" cy="255.8" r="255.1"/>
<linearGradient id="SVGID_1_" gradientUnits="userSpaceOnUse" x1="201.2027" y1="199.9583" x2="310.4452" y2="389.1719">
	<stop  offset="0" style="stop-color:#23F2AC"/>
	<stop  offset="1" style="stop-color:#23D0F2"/>
</linearGradient>
<path class="st1" d="M363.5,233H148.1c-8.5,0-15.4,6.9-15.4,15.4v92.3c0,8.5,6.9,15.4,15.4,15.4h215.5c8.5,0,15.4-6.9,15.4-15.4
	v-92.3C378.9,239.9,372,233,363.5,233z M225,310h-15.4v15.4h-30.8V310h-15.4v-30.8h15.4v-15.4h30.8v15.4H225V310z M271.2,310
	c-8.5,0-15.4-6.9-15.4-15.4s6.9-15.4,15.4-15.4s15.4,6.9,15.4,15.4S279.7,310,271.2,310z M348.2,310h-30.8v-30.8h30.8V310z"/>
<linearGradient id="SVGID_2_" gradientUnits="userSpaceOnUse" x1="128.3734" y1="34.2246" x2="384.2266" y2="477.3754">
	<stop  offset="0" style="stop-color:#23F2AC"/>
	<stop  offset="1" style="stop-color:#23D0F2"/>
</linearGradient>
<path class="st2" d="M256.3,0C115,0,0.5,114.5,0.5,255.8S115,511.6,256.3,511.6s255.8-114.5,255.8-255.8S397.6,0,256.3,0z
	 M409.7,356.2c0,17-13.8,30.8-30.8,30.8H132.7c-17,0-30.8-13.8-30.8-30.8V233c0-17,13.8-30.8,30.8-30.8h107.7v-61.6
	c0-17,13.8-30.8,30.8-30.8H302c8.5,0,15.4-6.9,15.4-15.4V79.1h30.8v30.8c0,17-13.8,30.8-30.8,30.8h-30.8c-8.5,0-15.4,6.9-15.4,15.4
	v46.2h107.7c17,0,30.8,13.8,30.8,30.8V356.2z"/>
</svg>
