<?xml version="1.0" encoding="utf-8"?>
<!-- Generator: Adobe Illustrator 24.2.3, SVG Export Plug-In . SVG Version: 6.00 Build 0)  -->
<svg version="1.1" id="Capa_1" xmlns="http://www.w3.org/2000/svg" xmlns:xlink="http://www.w3.org/1999/xlink" x="0px" y="0px"
	 viewBox="0 0 511.6 511.6" style="enable-background:new 0 0 511.6 511.6;" xml:space="preserve">
<style type="text/css">
	.st0{fill:#EEEEEE;}
	.st1{fill:url(#SVGID_1_);}
</style>
<circle class="st0" cx="256.3" cy="255.8" r="255.1"/>
<linearGradient id="SVGID_1_" gradientUnits="userSpaceOnUse" x1="128.3734" y1="34.2246" x2="384.2266" y2="477.3754">
	<stop  offset="0" style="stop-color:#23F2AC"/>
	<stop  offset="1" style="stop-color:#23D0F2"/>
</linearGradient>
<path class="st1" d="M256.3,0C115,0,0.5,114.5,0.5,255.8S115,511.6,256.3,511.6s255.8-114.5,255.8-255.8S397.6,0,256.3,0z
	 M388.7,336.5c0,6.5-2.3,12.1-7,16.8c-4.6,4.6-10.2,7-16.8,7H146.7c-6.5,0-12.1-2.3-16.8-7c-4.6-4.6-7-10.2-7-16.8V218.7
	c4.4,4.8,9.4,9.1,15,12.9c35.8,24.3,60.4,41.4,73.7,51.2c5.6,4.1,10.2,7.4,13.7,9.7c3.5,2.3,8.2,4.7,14,7.1s11.3,3.6,16.3,3.6h0.3
	c5,0,10.5-1.2,16.3-3.6s10.5-4.8,14-7.1c3.5-2.3,8.1-5.6,13.7-9.7c16.8-12.2,41.4-29.2,73.8-51.2c5.6-3.9,10.6-8.2,14.8-12.9v117.8
	H388.7z M381.4,197.5c-4.8,7.1-10.9,13.2-18.1,18.2c-37.2,25.8-60.3,41.9-69.4,48.2c-1,0.7-3.1,2.2-6.3,4.5c-3.2,2.3-5.9,4.2-8,5.6
	s-4.7,3-7.7,4.8s-5.9,3.1-8.5,4c-2.7,0.9-5.1,1.3-7.4,1.3h-0.3c-2.3,0-4.7-0.4-7.4-1.3s-5.5-2.2-8.5-4s-5.6-3.4-7.7-4.8
	c-2.1-1.4-4.8-3.3-8-5.6c-3.2-2.3-5.3-3.8-6.3-4.5c-9-6.3-22-15.3-38.9-27.1c-16.9-11.7-27-18.8-30.4-21.1
	c-6.1-4.1-11.9-9.9-17.3-17.1c-5.4-7.3-8.2-14-8.2-20.2c0-7.7,2-14.1,6.2-19.3c4.1-5.1,10-7.7,17.6-7.7H365c6.4,0,12,2.3,16.7,7
	c4.7,4.6,7,10.2,7,16.8C388.7,182.9,386.3,190.4,381.4,197.5z"/>
</svg>
