<?xml version="1.0" encoding="utf-8"?>
<!-- Generator: Adobe Illustrator 24.1.3, SVG Export Plug-In . SVG Version: 6.00 Build 0)  -->
<svg version="1.1" id="Capa_1" xmlns="http://www.w3.org/2000/svg" xmlns:xlink="http://www.w3.org/1999/xlink" x="0px" y="0px"
	 viewBox="0 0 462 462" style="enable-background:new 0 0 462 462;" xml:space="preserve">
<style type="text/css">
	.st0{fill:#FFDA00;}
	.st1{fill:#FFFFFF;}
</style>
<circle class="st0" cx="231" cy="231" r="231"/>
<g>
	<g>
		<g>
			<path class="st1" d="M231.6,276.8v-1.2c-6-0.1-11.8-0.4-17.3-0.8c-3,7.8-7.3,15-12.6,21.5c10,1.6,20.1,2.5,30.3,2.7L231.6,276.8z
				"/>
		</g>
	</g>
	<g>
		<g>
			<path class="st1" d="M231.4,262.5l-0.4-23.1c-4.1-0.1-8-0.2-11.8-0.5c0.2,2.6,0.3,5.2,0.3,7.7c0,5.1-0.5,10.3-1.5,15.3
				C222.3,262.3,226.8,262.5,231.4,262.5z"/>
		</g>
	</g>
	<g>
		<g>
			<path class="st1" d="M303,154.3c-4.5,2.4-9.3,4.2-14.2,5.7c-14.7,4.4-34,6.9-54.1,6.9c-19.3,0-37.7-2.2-51.8-6.3
				c-4.9-1.3-9.6-3.1-14.1-5.4l0.5,18.4c7.4,2.7,14.2,6.7,20.5,11.6c0.2,0.1,0.3,0.1,0.5,0.1c12.6,3.2,28.4,4.9,44.5,4.9
				c18.7,0,37.1-2.4,50.3-6.3c14.2-4.3,17.3-8.8,17.3-9.7c0-0.9-0.1-1.8,0.7-2.7L303,154.3L303,154.3z"/>
		</g>
	</g>
	<g>
		<g>
			<path class="st1" d="M285,128.4c-13.3-4.1-31.6-6.3-50.3-6.3c-18.8,0-36.5,2.3-49.7,6.3c-13.8,4.2-16.8,8.3-16.9,9.6
				c0,0,0.1,0,0.1,0.1c0.3,1.4,4.2,5.9,18.3,9.9c13,3.8,30.1,5.9,48.2,5.9c18.7,0,37-2.3,50.3-6.3c14.2-4.2,17.4-8.8,17.4-9.7
				C302.3,137.1,299.1,132.7,285,128.4z"/>
		</g>
	</g>
	<g>
		<g>
			<path class="st1" d="M378,309.2v-19.6c-4.4,2.2-9,4.1-13.7,5.6c-14.6,4.4-33.8,6.9-54,6.9c-17.9,0-35.4-2-49.1-5.6
				c-5.6-1.4-11-3.4-16.3-5.9l0.3,19c0,0.1,0,0.1,0,0.1c0,1,2.9,5.4,16.7,9.6c13.1,4,30.7,6.2,49.6,6.2c18.8,0,36.5-2.3,49.7-6.4
				C375.1,314.7,378.1,310.2,378,309.2L378,309.2L378,309.2z"/>
		</g>
	</g>
	<g>
		<g>
			<path class="st1" d="M302.9,190.8c-4.5,2.3-9.2,4.2-14.1,5.6c-14.7,4.4-34,6.9-54.2,6.9c-9.9,0-19.8-0.7-29.6-1.9
				c5.3,7.3,9.2,15.6,11.7,24.3c5.6,0.4,11.7,0.7,18,0.7c0.2,0,0.5,0,0.7,0c10.7-11.8,39.5-17.6,67.6-18.4V190.8L302.9,190.8z"/>
		</g>
	</g>
	<g>
		<g>
			<path class="st1" d="M363.8,259c-14.6,4.3-33.5,6.7-53.4,6.7c-19.3,0-37.7-2.2-51.8-6.3c-4.9-1.4-9.7-3.2-14.2-5.5l0.3,15
				l0.1,5.5c5.1,6.3,29.5,14.5,65.7,14.5c18.9,0,36.7-2.2,50.1-6.3c14.1-4.3,17.2-8.8,17.2-9.7c0-0.7,0.4-1.5,0.4-2.2h0.1v-17.3
				C373.6,255.8,368.8,257.7,363.8,259z"/>
		</g>
	</g>
	<g>
		<g>
			<path class="st1" d="M360.8,227.3c-13.3-4.1-31.6-6.2-50.3-6.2h-1.1c-17.4,0-33.9,2-46.6,5.6c-13.5,3.8-18.2,8.1-18.8,9.9
				c-0.1,0.1-0.1,0.2-0.1,0.3c0,0,0,0,0.1,0.3c0.4,1.4,4.2,5.8,18.3,9.9c13,3.7,30.1,5.8,48.2,5.8c18.6,0,36.3-2.2,49.7-6.1
				c14.5-4.3,17.8-8.8,17.8-9.8v-0.1C378,235.8,374.7,231.5,360.8,227.3z"/>
		</g>
	</g>
	<path class="st1" d="M205.1,233.5c-4.8-23.1-21.9-42-44.6-49.1c-6.3-1.9-12.7-2.9-19.3-2.9c-16.2,0.1-31.9,6.1-43.9,16.9
		c-26.5,24.2-28.4,65.4-4.2,92s65.4,28.5,92,4.3c13.6-12.4,21.4-29.8,21.3-48.2C206.4,242.3,206.1,237.9,205.1,233.5z M184.3,235
		l-26.2,17.8c-0.4,0.3-0.5,0.7-0.4,1.1l10.8,29.8c0.3,0.9-0.7,1.7-1.5,1.1l-25-19.5c-0.3-0.3-0.8-0.3-1.2,0l-25,19.5
		c-0.8,0.6-1.8-0.2-1.5-1.1l10.7-29.8c0.1-0.4,0-0.9-0.4-1.1L98.3,235c-0.8-0.5-0.4-1.8,0.6-1.8l31.7,1c0.5,0,0.8-0.3,1-0.7
		l8.8-30.5c0.3-0.9,1.6-0.9,1.8,0l8.8,30.5c0.1,0.4,0.5,0.7,1,0.7l31.7-1C184.7,233.2,185.1,234.4,184.3,235z"/>
</g>
</svg>
