<?xml version="1.0" encoding="utf-8"?>
<!-- Generator: Adobe Illustrator 24.2.3, SVG Export Plug-In . SVG Version: 6.00 Build 0)  -->
<svg version="1.1" id="Capa_1" xmlns="http://www.w3.org/2000/svg" xmlns:xlink="http://www.w3.org/1999/xlink" x="0px" y="0px"
	 viewBox="0 0 462 462" style="enable-background:new 0 0 462 462;" xml:space="preserve">
<style type="text/css">
	.st0{fill:#EEEEEE;}
	.st1{fill:url(#SVGID_1_);}
</style>
<circle class="st0" cx="231" cy="231" r="229.8"/>
<linearGradient id="SVGID_1_" gradientUnits="userSpaceOnUse" x1="115.4803" y1="30.9139" x2="346.5197" y2="431.0861">
	<stop  offset="0" style="stop-color:#23F2AC"/>
	<stop  offset="1" style="stop-color:#23D0F2"/>
</linearGradient>
<path class="st1" d="M158.1,252.8l26.2-17.8c0.8-0.6,0.4-1.8-0.6-1.8l-31.7,1c-0.5,0-0.9-0.3-1-0.7l-8.8-30.5
	c-0.2-0.9-1.5-0.9-1.8,0l-8.8,30.5c-0.2,0.4-0.5,0.7-1,0.7l-31.7-1c-1,0-1.4,1.3-0.6,1.8l26.3,17.8c0.4,0.2,0.5,0.7,0.4,1.1
	l-10.7,29.8c-0.3,0.9,0.7,1.7,1.5,1.1l25-19.5c0.4-0.3,0.9-0.3,1.2,0l25,19.5c0.8,0.6,1.8-0.2,1.5-1.1l-10.8-29.8
	C157.6,253.5,157.7,253.1,158.1,252.8z M158.1,252.8l26.2-17.8c0.8-0.6,0.4-1.8-0.6-1.8l-31.7,1c-0.5,0-0.9-0.3-1-0.7l-8.8-30.5
	c-0.2-0.9-1.5-0.9-1.8,0l-8.8,30.5c-0.2,0.4-0.5,0.7-1,0.7l-31.7-1c-1,0-1.4,1.3-0.6,1.8l26.3,17.8c0.4,0.2,0.5,0.7,0.4,1.1
	l-10.7,29.8c-0.3,0.9,0.7,1.7,1.5,1.1l25-19.5c0.4-0.3,0.9-0.3,1.2,0l25,19.5c0.8,0.6,1.8-0.2,1.5-1.1l-10.8-29.8
	C157.6,253.5,157.7,253.1,158.1,252.8z M158.1,252.8l26.2-17.8c0.8-0.6,0.4-1.8-0.6-1.8l-31.7,1c-0.5,0-0.9-0.3-1-0.7l-8.8-30.5
	c-0.2-0.9-1.5-0.9-1.8,0l-8.8,30.5c-0.2,0.4-0.5,0.7-1,0.7l-31.7-1c-1,0-1.4,1.3-0.6,1.8l26.3,17.8c0.4,0.2,0.5,0.7,0.4,1.1
	l-10.7,29.8c-0.3,0.9,0.7,1.7,1.5,1.1l25-19.5c0.4-0.3,0.9-0.3,1.2,0l25,19.5c0.8,0.6,1.8-0.2,1.5-1.1l-10.8-29.8
	C157.6,253.5,157.7,253.1,158.1,252.8z M158.1,252.8l26.2-17.8c0.8-0.6,0.4-1.8-0.6-1.8l-31.7,1c-0.5,0-0.9-0.3-1-0.7l-8.8-30.5
	c-0.2-0.9-1.5-0.9-1.8,0l-8.8,30.5c-0.2,0.4-0.5,0.7-1,0.7l-31.7-1c-1,0-1.4,1.3-0.6,1.8l26.3,17.8c0.4,0.2,0.5,0.7,0.4,1.1
	l-10.7,29.8c-0.3,0.9,0.7,1.7,1.5,1.1l25-19.5c0.4-0.3,0.9-0.3,1.2,0l25,19.5c0.8,0.6,1.8-0.2,1.5-1.1l-10.8-29.8
	C157.6,253.5,157.7,253.1,158.1,252.8z M158.1,252.8l26.2-17.8c0.8-0.6,0.4-1.8-0.6-1.8l-31.7,1c-0.5,0-0.9-0.3-1-0.7l-8.8-30.5
	c-0.2-0.9-1.5-0.9-1.8,0l-8.8,30.5c-0.2,0.4-0.5,0.7-1,0.7l-31.7-1c-1,0-1.4,1.3-0.6,1.8l26.3,17.8c0.4,0.2,0.5,0.7,0.4,1.1
	l-10.7,29.8c-0.3,0.9,0.7,1.7,1.5,1.1l25-19.5c0.4-0.3,0.9-0.3,1.2,0l25,19.5c0.8,0.6,1.8-0.2,1.5-1.1l-10.8-29.8
	C157.6,253.5,157.7,253.1,158.1,252.8z M158.1,252.8l26.2-17.8c0.8-0.6,0.4-1.8-0.6-1.8l-31.7,1c-0.5,0-0.9-0.3-1-0.7l-8.8-30.5
	c-0.2-0.9-1.5-0.9-1.8,0l-8.8,30.5c-0.2,0.4-0.5,0.7-1,0.7l-31.7-1c-1,0-1.4,1.3-0.6,1.8l26.3,17.8c0.4,0.2,0.5,0.7,0.4,1.1
	l-10.7,29.8c-0.3,0.9,0.7,1.7,1.5,1.1l25-19.5c0.4-0.3,0.9-0.3,1.2,0l25,19.5c0.8,0.6,1.8-0.2,1.5-1.1l-10.8-29.8
	C157.6,253.5,157.7,253.1,158.1,252.8z M231,0C103.4,0,0,103.4,0,231s103.4,231,231,231s231-103.4,231-231S358.6,0,231,0z
	 M303.1,171.5c-0.8,0.9-0.7,1.8-0.7,2.7c0,0.9-3.1,5.4-17.3,9.7c-13.2,3.9-31.6,6.3-50.3,6.3c-16.1,0-31.9-1.7-44.5-4.9
	c-0.2,0-0.3,0-0.5-0.1c-6.3-4.9-13.1-8.9-20.5-11.6l-0.5-18.4c4.5,2.3,9.2,4.1,14.1,5.4c14.1,4.1,32.5,6.3,51.8,6.3
	c20.1,0,39.4-2.5,54.1-6.9c4.9-1.5,9.7-3.3,14.2-5.7L303.1,171.5z M185,128.4c13.2-4,30.9-6.3,49.7-6.3c18.7,0,37,2.2,50.3,6.3
	c14.1,4.3,17.3,8.7,17.4,9.5c0,0.9-3.2,5.5-17.4,9.7c-13.3,4-31.6,6.3-50.3,6.3c-18.1,0-35.2-2.1-48.2-5.9c-14.1-4-18-8.5-18.3-9.9
	c0-0.1-0.1-0.1-0.1-0.1C168.2,136.7,171.2,132.6,185,128.4z M185.1,294.7c-26.6,24.2-67.8,22.3-92-4.3c-24.2-26.6-22.3-67.8,4.2-92
	c12-10.8,27.7-16.8,43.9-16.9c6.6,0,13,1,19.3,2.9c22.7,7.1,39.8,26,44.6,49.1c1,4.4,1.3,8.8,1.3,13
	C206.5,264.9,198.7,282.3,185.1,294.7z M201.7,296.3c5.3-6.5,9.6-13.7,12.6-21.5c5.5,0.4,11.3,0.7,17.3,0.8v1.2L232,299
	C221.8,298.8,211.7,297.9,201.7,296.3z M219.2,238.9c3.8,0.3,7.7,0.4,11.8,0.5l0.4,23.1c-4.6,0-9.1-0.2-13.4-0.6
	c1-5,1.5-10.2,1.5-15.3C219.5,244.1,219.4,241.5,219.2,238.9z M235.4,226.4h-0.7c-6.3,0-12.4-0.3-18-0.7c-2.5-8.7-6.4-17-11.7-24.3
	c9.8,1.2,19.7,1.9,29.6,1.9c20.2,0,39.5-2.5,54.2-6.9c4.9-1.4,9.6-3.3,14.1-5.6h0.1V208C274.9,208.8,246.1,214.6,235.4,226.4z
	 M243.9,236.9c0-0.1,0-0.2,0.1-0.3c0.6-1.8,5.3-6.1,18.8-9.9c12.7-3.6,29.2-5.6,46.6-5.6h1.1c18.7,0,37,2.1,50.3,6.2
	c13.9,4.2,17.2,8.5,17.2,9.6v0.1c0,1-3.3,5.5-17.8,9.8c-13.4,3.9-31.1,6.1-49.7,6.1c-18.1,0-35.2-2.1-48.2-5.8
	c-14.1-4.1-17.9-8.5-18.3-9.9C243.9,236.9,243.9,236.9,243.9,236.9z M361.2,319.1c-13.2,4.1-30.9,6.4-49.7,6.4
	c-18.9,0-36.5-2.2-49.6-6.2c-13.8-4.2-16.7-8.6-16.7-9.6c0,0,0,0,0-0.1l-0.3-19c5.3,2.5,10.7,4.5,16.3,5.9
	c13.7,3.6,31.2,5.6,49.1,5.6c20.2,0,39.4-2.5,54-6.9c4.7-1.5,9.3-3.4,13.7-5.6v19.6C378.1,310.2,375.1,314.7,361.2,319.1z
	 M378.3,270.7L378.3,270.7c-0.1,0.7-0.5,1.5-0.5,2.2c0,0.9-3.1,5.4-17.2,9.7c-13.4,4.1-31.2,6.3-50.1,6.3
	c-36.2,0-60.6-8.2-65.7-14.5l-0.1-5.5l-0.3-15c4.5,2.3,9.3,4.1,14.2,5.5c14.1,4.1,32.5,6.3,51.8,6.3c19.9,0,38.8-2.4,53.4-6.7
	c5-1.3,9.8-3.2,14.5-5.6V270.7z M183.7,233.2l-31.7,1c-0.5,0-0.9-0.3-1-0.7l-8.8-30.5c-0.2-0.9-1.5-0.9-1.8,0l-8.8,30.5
	c-0.2,0.4-0.5,0.7-1,0.7l-31.7-1c-1,0-1.4,1.3-0.6,1.8l26.3,17.8c0.4,0.2,0.5,0.7,0.4,1.1l-10.7,29.8c-0.3,0.9,0.7,1.7,1.5,1.1
	l25-19.5c0.4-0.3,0.9-0.3,1.2,0l25,19.5c0.8,0.6,1.8-0.2,1.5-1.1l-10.8-29.8c-0.1-0.4,0-0.8,0.4-1.1l26.2-17.8
	C185.1,234.4,184.7,233.2,183.7,233.2z M158.1,252.8l26.2-17.8c0.8-0.6,0.4-1.8-0.6-1.8l-31.7,1c-0.5,0-0.9-0.3-1-0.7l-8.8-30.5
	c-0.2-0.9-1.5-0.9-1.8,0l-8.8,30.5c-0.2,0.4-0.5,0.7-1,0.7l-31.7-1c-1,0-1.4,1.3-0.6,1.8l26.3,17.8c0.4,0.2,0.5,0.7,0.4,1.1
	l-10.7,29.8c-0.3,0.9,0.7,1.7,1.5,1.1l25-19.5c0.4-0.3,0.9-0.3,1.2,0l25,19.5c0.8,0.6,1.8-0.2,1.5-1.1l-10.8-29.8
	C157.6,253.5,157.7,253.1,158.1,252.8z M158.1,252.8l26.2-17.8c0.8-0.6,0.4-1.8-0.6-1.8l-31.7,1c-0.5,0-0.9-0.3-1-0.7l-8.8-30.5
	c-0.2-0.9-1.5-0.9-1.8,0l-8.8,30.5c-0.2,0.4-0.5,0.7-1,0.7l-31.7-1c-1,0-1.4,1.3-0.6,1.8l26.3,17.8c0.4,0.2,0.5,0.7,0.4,1.1
	l-10.7,29.8c-0.3,0.9,0.7,1.7,1.5,1.1l25-19.5c0.4-0.3,0.9-0.3,1.2,0l25,19.5c0.8,0.6,1.8-0.2,1.5-1.1l-10.8-29.8
	C157.6,253.5,157.7,253.1,158.1,252.8z M158.1,252.8l26.2-17.8c0.8-0.6,0.4-1.8-0.6-1.8l-31.7,1c-0.5,0-0.9-0.3-1-0.7l-8.8-30.5
	c-0.2-0.9-1.5-0.9-1.8,0l-8.8,30.5c-0.2,0.4-0.5,0.7-1,0.7l-31.7-1c-1,0-1.4,1.3-0.6,1.8l26.3,17.8c0.4,0.2,0.5,0.7,0.4,1.1
	l-10.7,29.8c-0.3,0.9,0.7,1.7,1.5,1.1l25-19.5c0.4-0.3,0.9-0.3,1.2,0l25,19.5c0.8,0.6,1.8-0.2,1.5-1.1l-10.8-29.8
	C157.6,253.5,157.7,253.1,158.1,252.8z M158.1,252.8l26.2-17.8c0.8-0.6,0.4-1.8-0.6-1.8l-31.7,1c-0.5,0-0.9-0.3-1-0.7l-8.8-30.5
	c-0.2-0.9-1.5-0.9-1.8,0l-8.8,30.5c-0.2,0.4-0.5,0.7-1,0.7l-31.7-1c-1,0-1.4,1.3-0.6,1.8l26.3,17.8c0.4,0.2,0.5,0.7,0.4,1.1
	l-10.7,29.8c-0.3,0.9,0.7,1.7,1.5,1.1l25-19.5c0.4-0.3,0.9-0.3,1.2,0l25,19.5c0.8,0.6,1.8-0.2,1.5-1.1l-10.8-29.8
	C157.6,253.5,157.7,253.1,158.1,252.8z M158.1,252.8l26.2-17.8c0.8-0.6,0.4-1.8-0.6-1.8l-31.7,1c-0.5,0-0.9-0.3-1-0.7l-8.8-30.5
	c-0.2-0.9-1.5-0.9-1.8,0l-8.8,30.5c-0.2,0.4-0.5,0.7-1,0.7l-31.7-1c-1,0-1.4,1.3-0.6,1.8l26.3,17.8c0.4,0.2,0.5,0.7,0.4,1.1
	l-10.7,29.8c-0.3,0.9,0.7,1.7,1.5,1.1l25-19.5c0.4-0.3,0.9-0.3,1.2,0l25,19.5c0.8,0.6,1.8-0.2,1.5-1.1l-10.8-29.8
	C157.6,253.5,157.7,253.1,158.1,252.8z M158.1,252.8l26.2-17.8c0.8-0.6,0.4-1.8-0.6-1.8l-31.7,1c-0.5,0-0.9-0.3-1-0.7l-8.8-30.5
	c-0.2-0.9-1.5-0.9-1.8,0l-8.8,30.5c-0.2,0.4-0.5,0.7-1,0.7l-31.7-1c-1,0-1.4,1.3-0.6,1.8l26.3,17.8c0.4,0.2,0.5,0.7,0.4,1.1
	l-10.7,29.8c-0.3,0.9,0.7,1.7,1.5,1.1l25-19.5c0.4-0.3,0.9-0.3,1.2,0l25,19.5c0.8,0.6,1.8-0.2,1.5-1.1l-10.8-29.8
	C157.6,253.5,157.7,253.1,158.1,252.8z"/>
</svg>
