<?xml version="1.0" encoding="utf-8"?>
<!-- Generator: Adobe Illustrator 23.1.0, SVG Export Plug-In . SVG Version: 6.00 Build 0)  -->
<svg version="1.1" id="Capa_1" xmlns="http://www.w3.org/2000/svg" xmlns:xlink="http://www.w3.org/1999/xlink" x="0px" y="0px"
	 viewBox="0 0 462 462" style="enable-background:new 0 0 462 462;" xml:space="preserve">
<style type="text/css">
	.st0{fill:url(#SVGID_1_);}
</style>
<linearGradient id="SVGID_1_" gradientUnits="userSpaceOnUse" x1="132.6051" y1="101.5853" x2="328.8889" y2="441.5587">
	<stop  offset="0.1024" style="stop-color:#FCD101"/>
	<stop  offset="0.5927" style="stop-color:#E4B10F"/>
	<stop  offset="0.7878" style="stop-color:#DBA514"/>
	<stop  offset="1" style="stop-color:#E5AE0E"/>
</linearGradient>
<path class="st0" d="M237.8,312.3v-1.8c-9.2-0.1-18-0.6-26.5-1.3c-4.6,11.9-11.1,23-19.2,32.9c15.3,2.5,30.8,3.9,46.3,4.1
	L237.8,312.3z M237.5,290.4l-0.6-35.4c-6.2-0.1-12.3-0.3-18.1-0.7c0.3,4,0.5,7.9,0.5,11.8c0,7.8-0.8,15.7-2.3,23.4
	C223.6,290.1,230.5,290.4,237.5,290.4z M347,124.9c-6.9,3.6-14.2,6.5-21.7,8.7c-22.5,6.8-52,10.5-82.8,10.5
	c-29.5,0-57.6-3.4-79.3-9.7c-7.5-2-14.7-4.8-21.6-8.3l0.7,28.2c11.3,4.2,21.8,10.2,31.3,17.7c0.3,0.1,0.5,0.1,0.8,0.2
	c19.2,4.9,43.4,7.5,68.1,7.5c28.6,0,56.7-3.6,77-9.7c21.7-6.6,26.5-13.5,26.5-14.8c0-1.4-0.1-2.7,1-4.1L347,124.9L347,124.9z
	 M319.4,85.2c-20.3-6.2-48.4-9.7-77-9.7c-28.8,0-55.8,3.5-76,9.7c-21.1,6.4-25.7,12.7-25.8,14.7c0,0,0.1,0,0.1,0.2
	c0.5,2.2,6.5,9,28,15.2c19.9,5.8,46.1,9,73.7,9c28.6,0,56.6-3.5,76.9-9.6c21.7-6.5,26.6-13.4,26.6-14.8
	C345.9,98.6,341.1,91.8,319.4,85.2z M461.8,361.9v-30c-6.7,3.4-13.7,6.3-21,8.5c-22.4,6.8-51.7,10.5-82.6,10.5
	c-27.4,0-54.1-3.1-75.1-8.6c-8.6-2.2-16.9-5.2-24.9-9.1l0.5,29c0,0.1,0,0.1,0,0.2c0,1.5,4.4,8.2,25.5,14.7c20,6.1,47,9.5,75.9,9.5
	c28.8,0,55.9-3.5,76.1-9.8c21.1-6.6,25.7-13.5,25.7-14.9L461.8,361.9L461.8,361.9z M346.8,180.7c-6.9,3.5-14.1,6.4-21.6,8.6
	c-22.5,6.8-52,10.5-82.9,10.5c-15.2,0-30.3-1-45.3-2.9c8.1,11.2,14.1,23.8,17.9,37.2c8.6,0.6,17.9,1,27.5,1c0.3,0,0.7,0,1,0
	c16.4-18,60.5-27,103.4-28.2V180.7L346.8,180.7z M440.1,285.1c-22.3,6.6-51.3,10.2-81.7,10.2c-29.5,0-57.6-3.4-79.3-9.7
	c-7.5-2.1-14.8-4.9-21.8-8.4l0.4,23l0.1,8.4c7.8,9.7,45.1,22.2,100.5,22.2c28.9,0,56.2-3.4,76.7-9.6c21.6-6.6,26.3-13.4,26.3-14.8
	c0-1.1,0.6-2.3,0.6-3.3h0.1v-26.5C455,280.1,447.7,283.1,440.1,285.1z M435.4,236.6c-20.4-6.2-48.4-9.5-77-9.5h-1.7
	c-26.6,0-51.9,3-71.3,8.5c-20.7,5.8-27.8,12.4-28.7,15.1c-0.1,0.2-0.1,0.3-0.1,0.4c0,0,0,0,0.2,0.4c0.6,2.1,6.5,8.9,28,15.2
	c19.9,5.7,46.1,8.9,73.7,8.9c28.5,0,55.5-3.3,76-9.4c22.2-6.6,27.2-13.5,27.3-15v-0.1C461.7,249.6,456.7,243,435.4,236.6z
	 M197.3,246.1c-7.4-35.4-33.5-64.2-68.2-75.1c-9.6-2.9-19.5-4.4-29.5-4.4c-24.8,0.1-48.8,9.3-67.1,25.9
	C-8.1,229.5-11,292.6,26,333.3s100.1,43.6,140.8,6.6c20.8-18.9,32.7-45.6,32.6-73.7C199.3,259.5,198.7,252.7,197.3,246.1z
	 M165.4,248.3l-40.1,27.2c-0.6,0.4-0.8,1.1-0.6,1.7l16.5,45.6c0.5,1.4-1.1,2.6-2.3,1.7l-38.3-29.8c-0.5-0.4-1.3-0.4-1.8,0
	l-38.3,29.8c-1.2,0.9-2.8-0.3-2.3-1.7l16.4-45.6c0.2-0.6,0-1.4-0.6-1.7l-40.1-27.2c-1.2-0.8-0.6-2.8,0.9-2.7l48.5,1.5
	c0.7,0,1.3-0.4,1.5-1.1l13.5-46.6c0.4-1.4,2.4-1.4,2.8,0l13.5,46.6c0.2,0.6,0.8,1.1,1.5,1.1l48.5-1.5
	C166,245.5,166.7,247.4,165.4,248.3z"/>
</svg>
