<?xml version="1.0" encoding="utf-8"?>
<!-- Generator: Adobe Illustrator 24.1.3, SVG Export Plug-In . SVG Version: 6.00 Build 0)  -->
<svg version="1.1" id="Capa_1" xmlns="http://www.w3.org/2000/svg" xmlns:xlink="http://www.w3.org/1999/xlink" x="0px" y="0px"
	 viewBox="0 0 511.6 511.6" style="enable-background:new 0 0 511.6 511.6;" xml:space="preserve">
<style type="text/css">
	.st0{fill:#46DB46;}
</style>
<path class="st0" d="M185.5,245.9c-9.6-16.8-14.6-35.8-14.6-55.2V164h-30.4v40.2c0,24.7,20.1,44.8,44.8,44.8h2.1
	C186.7,248,186.1,247,185.5,245.9z M341.7,164v26.8c0,19.3-5.1,38.4-14.6,55.2c-0.6,1-1.2,2-1.8,3h2.1c24.7,0,44.8-20.1,44.8-44.8
	V164H341.7z M185.5,245.9c-9.6-16.8-14.6-35.8-14.6-55.2V164h-30.4v40.2c0,24.7,20.1,44.8,44.8,44.8h2.1
	C186.7,248,186.1,247,185.5,245.9z M185.5,245.9c-9.6-16.8-14.6-35.8-14.6-55.2V164h-30.4v40.2c0,24.7,20.1,44.8,44.8,44.8h2.1
	C186.7,248,186.1,247,185.5,245.9z M341.7,164v26.8c0,19.3-5.1,38.4-14.6,55.2c-0.6,1-1.2,2-1.8,3h2.1c24.7,0,44.8-20.1,44.8-44.8
	V164H341.7z M341.7,164v26.8c0,19.3-5.1,38.4-14.6,55.2c-0.6,1-1.2,2-1.8,3h2.1c24.7,0,44.8-20.1,44.8-44.8V164H341.7z M185.5,245.9
	c-9.6-16.8-14.6-35.8-14.6-55.2V164h-30.4v40.2c0,24.7,20.1,44.8,44.8,44.8h2.1C186.7,248,186.1,247,185.5,245.9z M185.5,245.9
	c-9.6-16.8-14.6-35.8-14.6-55.2V164h-30.4v40.2c0,24.7,20.1,44.8,44.8,44.8h2.1C186.7,248,186.1,247,185.5,245.9z M341.7,164v26.8
	c0,19.3-5.1,38.4-14.6,55.2c-0.6,1-1.2,2-1.8,3h2.1c24.7,0,44.8-20.1,44.8-44.8V164H341.7z M341.7,164v26.8
	c0,19.3-5.1,38.4-14.6,55.2c-0.6,1-1.2,2-1.8,3h2.1c24.7,0,44.8-20.1,44.8-44.8V164H341.7z M185.5,245.9
	c-9.6-16.8-14.6-35.8-14.6-55.2V164h-30.4v40.2c0,24.7,20.1,44.8,44.8,44.8h2.1C186.7,248,186.1,247,185.5,245.9z M185.5,245.9
	c-9.6-16.8-14.6-35.8-14.6-55.2V164h-30.4v40.2c0,24.7,20.1,44.8,44.8,44.8h2.1C186.7,248,186.1,247,185.5,245.9z M341.7,164v26.8
	c0,19.3-5.1,38.4-14.6,55.2c-0.6,1-1.2,2-1.8,3h2.1c24.7,0,44.8-20.1,44.8-44.8V164H341.7z M341.7,164v26.8
	c0,19.3-5.1,38.4-14.6,55.2c-0.6,1-1.2,2-1.8,3h2.1c24.7,0,44.8-20.1,44.8-44.8V164H341.7z M170.9,190.8V164h-30.4v40.2
	c0,24.7,20.1,44.8,44.8,44.8h2.1c-0.6-1-1.2-2-1.8-3C176,229.2,170.9,210.1,170.9,190.8z M256.3,0C115,0,0.5,114.5,0.5,255.8
	S115,511.6,256.3,511.6s255.8-114.5,255.8-255.8S397.6,0,256.3,0z M389.7,204.2c0,34.4-28,62.4-62.4,62.4h-15.5
	c-7.3,7.8-15.7,14.6-24.9,20l-5.7,3.3v77.5h4.2c17.2,0,31.2,14,31.2,31.2v15.1H195.8v-15.1c0-17.2,14-31.2,31.2-31.2h4.2v-77.5
	l-5.7-3.3c-9.2-5.5-17.6-12.2-24.9-20h-15.5c-34.4,0-62.4-28-62.4-62.4v-57.8h48v-33h170.8v33h48V204.2z M341.7,190.8
	c0,19.3-5.1,38.4-14.6,55.2c-0.6,1-1.2,2-1.8,3h2.1c24.7,0,44.8-20.1,44.8-44.8V164h-30.4V190.8z M170.9,190.8V164h-30.4v40.2
	c0,24.7,20.1,44.8,44.8,44.8h2.1c-0.6-1-1.2-2-1.8-3C176,229.2,170.9,210.1,170.9,190.8z M185.5,245.9
	c-9.6-16.8-14.6-35.8-14.6-55.2V164h-30.4v40.2c0,24.7,20.1,44.8,44.8,44.8h2.1C186.7,248,186.1,247,185.5,245.9z M341.7,164v26.8
	c0,19.3-5.1,38.4-14.6,55.2c-0.6,1-1.2,2-1.8,3h2.1c24.7,0,44.8-20.1,44.8-44.8V164H341.7z M341.7,164v26.8
	c0,19.3-5.1,38.4-14.6,55.2c-0.6,1-1.2,2-1.8,3h2.1c24.7,0,44.8-20.1,44.8-44.8V164H341.7z M185.5,245.9
	c-9.6-16.8-14.6-35.8-14.6-55.2V164h-30.4v40.2c0,24.7,20.1,44.8,44.8,44.8h2.1C186.7,248,186.1,247,185.5,245.9z M185.5,245.9
	c-9.6-16.8-14.6-35.8-14.6-55.2V164h-30.4v40.2c0,24.7,20.1,44.8,44.8,44.8h2.1C186.7,248,186.1,247,185.5,245.9z M341.7,164v26.8
	c0,19.3-5.1,38.4-14.6,55.2c-0.6,1-1.2,2-1.8,3h2.1c24.7,0,44.8-20.1,44.8-44.8V164H341.7z M341.7,164v26.8
	c0,19.3-5.1,38.4-14.6,55.2c-0.6,1-1.2,2-1.8,3h2.1c24.7,0,44.8-20.1,44.8-44.8V164H341.7z M185.5,245.9
	c-9.6-16.8-14.6-35.8-14.6-55.2V164h-30.4v40.2c0,24.7,20.1,44.8,44.8,44.8h2.1C186.7,248,186.1,247,185.5,245.9z M185.5,245.9
	c-9.6-16.8-14.6-35.8-14.6-55.2V164h-30.4v40.2c0,24.7,20.1,44.8,44.8,44.8h2.1C186.7,248,186.1,247,185.5,245.9z M341.7,164v26.8
	c0,19.3-5.1,38.4-14.6,55.2c-0.6,1-1.2,2-1.8,3h2.1c24.7,0,44.8-20.1,44.8-44.8V164H341.7z M341.7,164v26.8
	c0,19.3-5.1,38.4-14.6,55.2c-0.6,1-1.2,2-1.8,3h2.1c24.7,0,44.8-20.1,44.8-44.8V164H341.7z M185.5,245.9
	c-9.6-16.8-14.6-35.8-14.6-55.2V164h-30.4v40.2c0,24.7,20.1,44.8,44.8,44.8h2.1C186.7,248,186.1,247,185.5,245.9z M185.5,245.9
	c-9.6-16.8-14.6-35.8-14.6-55.2V164h-30.4v40.2c0,24.7,20.1,44.8,44.8,44.8h2.1C186.7,248,186.1,247,185.5,245.9z"/>
</svg>
