<?xml version="1.0" encoding="utf-8"?>
<!-- Generator: Adobe Illustrator 24.1.3, SVG Export Plug-In . SVG Version: 6.00 Build 0)  -->
<svg version="1.1" id="Layer_1" xmlns="http://www.w3.org/2000/svg" xmlns:xlink="http://www.w3.org/1999/xlink" x="0px" y="0px"
	 viewBox="0 0 2500 2500" style="enable-background:new 0 0 2500 2500;" xml:space="preserve">
<style type="text/css">
	.st0{fill-rule:evenodd;clip-rule:evenodd;fill:#FFFFFF;}
	.st1{fill-rule:evenodd;clip-rule:evenodd;fill:url(#SVGID_1_);}
</style>
<g>
	<path class="st0" d="M1204.2,2328.5l-250.2,126c-50,25.2-110.9,5.3-136.5-44.4l-134.9-262.2c-14.3-27.8-40.6-47.5-71.3-53.4
		l-278.8-53.8c-52.8-10.2-88.5-59.6-81.8-112.9l38.7-305.1c3.7-29.5-5.6-59.2-25.6-81.2l-202-223c-35.2-38.8-35.2-98,0-136.8
		l202-223c20-22,29.3-51.7,25.6-81.2l-38.7-305.1c-6.8-53.3,29-102.7,81.8-112.9l278.8-53.8c30.7-5.9,57-25.6,71.3-53.4L817.5,89.9
		C843.1,40.1,904,20.3,954,45.5l250.2,126c28.8,14.5,62.8,14.5,91.7,0l250.2-126c50-25.2,110.9-5.3,136.5,44.4l134.9,262.2
		c14.3,27.8,40.6,47.5,71.3,53.4l278.8,53.8c52.8,10.2,88.5,59.6,81.8,112.9l-38.7,305.1c-3.7,29.5,5.6,59.2,25.6,81.2l202,223
		c35.2,38.8,35.2,98,0,136.8l-202,223c-20,22-29.3,51.7-25.6,81.2l38.7,305.1c6.8,53.3-29,102.7-81.8,112.9l-278.8,53.8
		c-30.7,5.9-57,25.6-71.3,53.4l-134.9,262.2c-25.6,49.8-86.5,69.6-136.5,44.4l-250.2-126C1267,2314,1233,2314,1204.2,2328.5z"/>
	<linearGradient id="SVGID_1_" gradientUnits="userSpaceOnUse" x1="659.2" y1="1251.2999" x2="1837.5001" y2="1251.2999">
		<stop  offset="0" style="stop-color:#0084FF"/>
		<stop  offset="1" style="stop-color:#00C6FF"/>
	</linearGradient>
	<path class="st1" d="M1034.3,1389.2L835,1189.8l-175.8,175.8L858.5,1565l-0.3,0.3L1034,1741l0.3-0.3l0.3,0.3l175.8-175.8l-0.3-0.3
		l627.4-627.5l-175.8-175.8L1034.3,1389.2z"/>
</g>
</svg>
