<?xml version="1.0" encoding="utf-8"?>
<!-- Generator: Adobe Illustrator 23.1.0, SVG Export Plug-In . SVG Version: 6.00 Build 0)  -->
<svg version="1.1" id="Layer_1" xmlns="http://www.w3.org/2000/svg" xmlns:xlink="http://www.w3.org/1999/xlink" x="0px" y="0px"
	 viewBox="0 0 2500 2500" style="enable-background:new 0 0 2500 2500;" xml:space="preserve">
<style type="text/css">
	.st0{fill-rule:evenodd;clip-rule:evenodd;fill:#FFFFFF;}
	.st1{fill-rule:evenodd;clip-rule:evenodd;fill:url(#SVGID_1_);}
</style>
<g>
	<path class="st0" d="M1204.2,2328.5l-250.2,126c-50,25.2-110.9,5.3-136.5-44.4l-134.9-262.2c-14.3-27.8-40.6-47.5-71.3-53.4
		l-278.8-53.8c-52.8-10.2-88.5-59.6-81.8-112.9l38.7-305.1c3.7-29.5-5.6-59.2-25.6-81.2l-202-223c-35.2-38.8-35.2-98,0-136.8
		l202-223c20-22,29.3-51.7,25.6-81.2l-38.7-305.1c-6.8-53.3,29-102.7,81.8-112.9l278.8-53.8c30.7-5.9,57-25.6,71.3-53.4L817.5,89.9
		C843.1,40.1,904,20.3,954,45.5l250.2,126c28.8,14.5,62.8,14.5,91.7,0l250.2-126c50-25.2,110.9-5.3,136.5,44.4l134.9,262.2
		c14.3,27.8,40.6,47.5,71.3,53.4l278.8,53.8c52.8,10.2,88.5,59.6,81.8,112.9l-38.7,305.1c-3.7,29.5,5.6,59.2,25.6,81.2l202,223
		c35.2,38.8,35.2,98,0,136.8l-202,223c-20,22-29.3,51.7-25.6,81.2l38.7,305.1c6.8,53.3-29,102.7-81.8,112.9l-278.8,53.8
		c-30.7,5.9-57,25.6-71.3,53.4l-134.9,262.2c-25.6,49.8-86.5,69.6-136.5,44.4l-250.2-126C1267,2314,1233,2314,1204.2,2328.5z"/>
	<path class="st0" d="M1034.3,1389.2L835,1189.8l-175.8,175.8L858.5,1565l-0.3,0.3L1034,1741l0.3-0.3l0.3,0.3l175.8-175.8l-0.3-0.3
		l627.4-627.5l-175.8-175.8L1034.3,1389.2z"/>
</g>
<g>
	
		<linearGradient id="SVGID_1_" gradientUnits="userSpaceOnUse" x1="155.1101" y1="1248.7001" x2="2341.5901" y2="1248.7001" gradientTransform="matrix(1 0 0 -1 0 2500)">
		<stop  offset="0" style="stop-color:#0084FF"/>
		<stop  offset="1" style="stop-color:#00C6FF"/>
	</linearGradient>
	<path class="st1" d="M1207.1,2222l-225.2,113.4c-45,22.7-99.8,4.8-122.9-40l-121.4-236c-12.9-25-36.5-42.8-64.2-48.1L422.5,1963
		c-47.5-9.2-79.7-53.6-73.6-101.6l34.8-274.6c3.3-26.6-5-53.3-23-73.1L178.9,1313c-31.7-34.9-31.7-88.2,0-123.1l181.8-200.7
		c18-19.8,26.4-46.5,23-73.1l-34.8-274.6c-6.1-48,26.1-92.4,73.6-101.6l250.9-48.4c27.6-5.3,51.3-23,64.2-48.1L859,207.2
		c23-44.8,77.9-62.6,122.9-40l225.2,113.4c25.9,13.1,56.5,13.1,82.5,0l225.2-113.4c45-22.7,99.8-4.8,122.9,40l121.4,236
		c12.9,25,36.5,42.8,64.2,48.1l250.9,48.4c47.5,9.2,79.7,53.6,73.6,101.6L2113,915.9c-3.3,26.6,5,53.3,23,73.1l181.8,200.7
		c31.7,34.9,31.7,88.2,0,123.1L2136,1513.5c-18,19.8-26.4,46.5-23,73.1l34.8,274.6c6.1,48-26.1,92.4-73.6,101.6l-250.9,48.4
		c-27.6,5.3-51.3,23-64.2,48.1l-121.4,236c-23,44.8-77.9,62.6-122.9,40l-225.2-113.4C1263.6,2209,1233,2209,1207.1,2222z"/>
	<path class="st0" d="M1054.2,1376.6l-179.4-179.5l-158.2,158.2l179.4,179.5l-0.3,0.3l158.2,158.1l0.3-0.3l0.3,0.3l158.2-158.2
		l-0.3-0.3L1777.1,970l-158.2-158.2L1054.2,1376.6z"/>
</g>
</svg>
