<?xml version="1.0" encoding="utf-8"?>
<!-- Generator: Adobe Illustrator 24.1.3, SVG Export Plug-In . SVG Version: 6.00 Build 0)  -->
<svg version="1.1" id="Layer_1" xmlns="http://www.w3.org/2000/svg" xmlns:xlink="http://www.w3.org/1999/xlink" x="0px" y="0px"
	 viewBox="0 0 2500 2500" style="enable-background:new 0 0 2500 2500;" xml:space="preserve">
<style type="text/css">
	.st0{fill-rule:evenodd;clip-rule:evenodd;fill:#FFFFFF;}
	.st1{fill-rule:evenodd;clip-rule:evenodd;fill:url(#SVGID_1_);}
</style>
<g>
	<path class="st0" d="M1204.2,2328.5l-250.2,126c-50,25.2-110.9,5.3-136.5-44.4l-134.9-262.2c-14.3-27.8-40.6-47.5-71.3-53.4
		l-278.8-53.8c-52.8-10.2-88.5-59.6-81.8-112.9l38.7-305.1c3.7-29.5-5.6-59.2-25.6-81.2l-202-223c-35.2-38.8-35.2-98,0-136.8
		l202-223c20-22,29.3-51.7,25.6-81.2l-38.7-305.1c-6.8-53.3,29-102.7,81.8-112.9l278.8-53.8c30.7-5.9,57-25.6,71.3-53.4L817.5,89.9
		C843.1,40.1,904,20.3,954,45.5l250.2,126c28.8,14.5,62.8,14.5,91.7,0l250.2-126c50-25.2,110.9-5.3,136.5,44.4l134.9,262.2
		c14.3,27.8,40.6,47.5,71.3,53.4l278.8,53.8c52.8,10.2,88.5,59.6,81.8,112.9l-38.7,305.1c-3.7,29.5,5.6,59.2,25.6,81.2l202,223
		c35.2,38.8,35.2,98,0,136.8l-202,223c-20,22-29.3,51.7-25.6,81.2l38.7,305.1c6.8,53.3-29,102.7-81.8,112.9l-278.8,53.8
		c-30.7,5.9-57,25.6-71.3,53.4l-134.9,262.2c-25.6,49.8-86.5,69.6-136.5,44.4l-250.2-126C1267,2314,1233,2314,1204.2,2328.5z"/>
	<path class="st0" d="M1034.3,1389.2L835,1189.8l-175.8,175.8L858.5,1565l-0.3,0.3L1034,1741l0.3-0.3l0.3,0.3l175.8-175.8l-0.3-0.3
		l627.4-627.5l-175.8-175.8L1034.3,1389.2z"/>
</g>
<g>
	
		<linearGradient id="SVGID_1_" gradientUnits="userSpaceOnUse" x1="278.6174" y1="-998.7001" x2="2221.4827" y2="-998.7001" gradientTransform="matrix(1 0 0 1 0 2250)">
		<stop  offset="0" style="stop-color:#0084FF"/>
		<stop  offset="1" style="stop-color:#00C6FF"/>
	</linearGradient>
	<path class="st1" d="M1213.4,2113.9l-200.1,100.8c-40,20.2-88.7,4.3-109.2-35.5l-107.9-209.7c-11.5-22.2-32.4-38-57-42.7
		l-222.9-42.9c-42.2-8.2-70.8-47.6-65.4-90.3l30.9-244c2.9-23.6-4.4-47.4-20.4-65l-161.5-178.3c-28.2-31-28.2-78.4,0-109.4
		l161.5-178.3c16-17.6,23.5-41.3,20.4-65l-30.9-244c-5.4-42.7,23.2-82.1,65.4-90.3l222.9-43c24.5-4.7,45.6-20.4,57-42.7l107.9-209.9
		c20.4-39.8,69.2-55.6,109.2-35.5l200.1,100.8c23,11.6,50.2,11.6,73.3,0L1486.8,288c40-20.2,88.7-4.3,109.2,35.5l107.9,209.7
		c11.5,22.2,32.4,38,57,42.7l222.9,43c42.2,8.2,70.8,47.6,65.4,90.3l-30.9,244c-2.9,23.6,4.4,47.4,20.4,65l161.5,178.3
		c28.2,31,28.2,78.4,0,109.4l-161.5,178.3c-16,17.6-23.5,41.3-20.4,65l30.9,244c5.4,42.7-23.2,82.1-65.4,90.3l-222.9,43
		c-24.5,4.7-45.6,20.4-57,42.7L1596,2179c-20.4,39.8-69.2,55.6-109.2,35.5l-200.1-100.8C1263.6,2102.3,1236.4,2102.3,1213.4,2113.9z
		"/>
	<path class="st0" d="M1077.2,1360.3l-159.4-159.5l-140.6,140.6l159.4,159.5l-0.3,0.3l140.6,140.5l0.3-0.3l0.3,0.3L1218,1501
		l-0.3-0.3L1719.5,999L1579,858.4L1077.2,1360.3z"/>
</g>
</svg>
