<?xml version="1.0" encoding="utf-8"?>
<!-- Generator: Adobe Illustrator 24.2.3, SVG Export Plug-In . SVG Version: 6.00 Build 0)  -->
<svg version="1.1" id="Layer_1" xmlns="http://www.w3.org/2000/svg" xmlns:xlink="http://www.w3.org/1999/xlink" x="0px" y="0px"
	 viewBox="0 0 2500 2500" style="enable-background:new 0 0 2500 2500;" xml:space="preserve">
<style type="text/css">
	.st0{fill-rule:evenodd;clip-rule:evenodd;fill:#EEEEEE;}
	.st1{fill-rule:evenodd;clip-rule:evenodd;fill:url(#SVGID_1_);}
</style>
<g>
	<path class="st0" d="M1204.2,2328.5l-250.2,126c-50,25.2-110.9,5.3-136.5-44.4l-134.9-262.2c-14.3-27.8-40.6-47.5-71.3-53.4
		l-278.8-53.8c-52.8-10.2-88.5-59.6-81.8-112.9l38.7-305.1c3.7-29.5-5.6-59.2-25.6-81.2l-202-223c-35.2-38.8-35.2-98,0-136.8
		l202-223c20-22,29.3-51.7,25.6-81.2l-38.7-305.1c-6.8-53.3,29-102.7,81.8-112.9l278.8-53.8c30.7-5.9,57-25.6,71.3-53.4L817.5,89.9
		C843.1,40.1,904,20.3,954,45.5l250.2,126c28.8,14.5,62.8,14.5,91.7,0l250.2-126c50-25.2,110.9-5.3,136.5,44.4l134.9,262.2
		c14.3,27.8,40.6,47.5,71.3,53.4l278.8,53.8c52.8,10.2,88.5,59.6,81.8,112.9l-38.7,305.1c-3.7,29.5,5.6,59.2,25.6,81.2l202,223
		c35.2,38.8,35.2,98,0,136.8l-202,223c-20,22-29.3,51.7-25.6,81.2l38.7,305.1c6.8,53.3-29,102.7-81.8,112.9l-278.8,53.8
		c-30.7,5.9-57,25.6-71.3,53.4l-134.9,262.2c-25.6,49.8-86.5,69.6-136.5,44.4l-250.2-126C1267,2314,1233,2314,1204.2,2328.5z"/>
</g>
<g>
	
		<linearGradient id="SVGID_1_" gradientUnits="userSpaceOnUse" x1="707.7907" y1="-1939.2217" x2="1792.2332" y2="-60.9122" gradientTransform="matrix(1 0 0 1 0 2250)">
		<stop  offset="0" style="stop-color:#23F2AC"/>
		<stop  offset="1" style="stop-color:#23D0F2"/>
	</linearGradient>
	<path class="st1" d="M1209.9,2195.4l-219.3,110.4c-43.8,22.1-97.2,4.6-119.7-38.9l-118.3-229.8c-12.5-24.4-35.6-41.6-62.5-46.8
		l-244.4-47.2c-46.3-8.9-77.6-52.2-71.7-99l33.9-267.4c3.2-25.9-4.9-51.9-22.4-71.2L208.5,1310c-30.9-34-30.9-85.9,0-119.9
		l177.1-195.5c17.5-19.3,25.7-45.3,22.4-71.2L374,656c-6-46.7,25.4-90,71.7-99l244.4-47.2c26.9-5.2,50-22.4,62.5-46.8l118.3-230
		c22.4-43.7,75.8-61,119.7-38.9l219.3,110.4c25.2,12.7,55,12.7,80.4,0l219.3-110.4c43.8-22.1,97.2-4.6,119.7,38.9l118.3,229.8
		c12.5,24.4,35.6,41.6,62.5,46.8l244.4,47.2c46.3,8.9,77.6,52.2,71.7,99l-33.9,267.4c-3.2,25.9,4.9,51.9,22.4,71.2l177.1,195.5
		c30.9,34,30.9,85.9,0,119.9l-177.1,195.5c-17.5,19.3-25.7,45.3-22.4,71.2l33.9,267.4c6,46.7-25.4,90-71.7,99l-244.4,47.2
		c-26.9,5.2-50,22.4-62.5,46.8l-118.3,229.8c-22.4,43.7-75.8,61-119.7,38.9l-219.3-110.4C1264.9,2182.7,1235.1,2182.7,1209.9,2195.4
		z"/>
</g>
<path class="st0" d="M1818.6,1012.8c-122.2-132.1-320.3-132.1-442.5,0l-126,136.3l-126-136.3c-61.1-66.1-141.2-99.1-221.3-99.1
	c-80.1,0-160.2,33-221.3,99.1c-60.9,65.8-91.3,152.1-91.3,238.3s30.4,172.5,91.3,238.3c122.2,132.1,320.3,132.1,442.5,0l126-136.2
	l126,136.2c61.1,66.1,141.2,99.1,221.3,99.1c80.1,0,160.2-33,221.3-99.1c60.9-65.8,91.3-152.1,91.3-238.3
	S1879.5,1078.6,1818.6,1012.8z M1026.3,1391c-72.7,78.6-190.5,78.6-263.3,0c-35.7-38.6-53.6-89.2-53.6-139.8s17.9-101.2,53.6-139.8
	c36.4-39.3,84-58.9,131.6-58.9c47.6,0,95.3,19.7,131.6,58.9l129.3,139.8L1026.3,1391z M1736.6,1391c-36.4,39.3-84,58.9-131.6,58.9
	c-47.6,0-95.3-19.7-131.6-58.9L1344,1251.1l0.3-0.3l129.1-139.6c72.7-78.6,190.5-78.6,263.3,0c35.7,38.6,53.6,89.2,53.6,139.8
	S1772.3,1352.4,1736.6,1391z"/>
</svg>
