<?xml version="1.0" encoding="utf-8"?>
<!-- Generator: Adobe Illustrator 24.2.3, SVG Export Plug-In . SVG Version: 6.00 Build 0)  -->
<svg version="1.1" id="Layer_1" xmlns="http://www.w3.org/2000/svg" xmlns:xlink="http://www.w3.org/1999/xlink" x="0px" y="0px"
	 viewBox="0 0 2500 2500" style="enable-background:new 0 0 2500 2500;" xml:space="preserve">
<style type="text/css">
	.st0{fill-rule:evenodd;clip-rule:evenodd;fill:#EEEEEE;}
	.st1{fill-rule:evenodd;clip-rule:evenodd;fill:#FFFFFF;}
	.st2{fill-rule:evenodd;clip-rule:evenodd;fill:url(#SVGID_1_);}
</style>
<g>
	<path class="st0" d="M1204.2,2328.5l-250.2,126c-50,25.2-110.9,5.3-136.5-44.4l-134.9-262.2c-14.3-27.8-40.6-47.5-71.3-53.4
		l-278.8-53.8c-52.8-10.2-88.5-59.6-81.8-112.9l38.7-305.1c3.7-29.5-5.6-59.2-25.6-81.2l-202-223c-35.2-38.8-35.2-98,0-136.8
		l202-223c20-22,29.3-51.7,25.6-81.2l-38.7-305.1c-6.8-53.3,29-102.7,81.8-112.9l278.8-53.8c30.7-5.9,57-25.6,71.3-53.4L817.5,89.9
		C843.1,40.1,904,20.3,954,45.5l250.2,126c28.8,14.5,62.8,14.5,91.7,0l250.2-126c50-25.2,110.9-5.3,136.5,44.4l134.9,262.2
		c14.3,27.8,40.6,47.5,71.3,53.4l278.8,53.8c52.8,10.2,88.5,59.6,81.8,112.9l-38.7,305.1c-3.7,29.5,5.6,59.2,25.6,81.2l202,223
		c35.2,38.8,35.2,98,0,136.8l-202,223c-20,22-29.3,51.7-25.6,81.2l38.7,305.1c6.8,53.3-29,102.7-81.8,112.9l-278.8,53.8
		c-30.7,5.9-57,25.6-71.3,53.4l-134.9,262.2c-25.6,49.8-86.5,69.6-136.5,44.4l-250.2-126C1267,2314,1233,2314,1204.2,2328.5z"/>
	<path class="st1" d="M1034.3,1389.2L835,1189.8l-175.8,175.8L858.5,1565l-0.3,0.3L1034,1741l0.3-0.3l0.3,0.3l175.8-175.8l-0.3-0.3
		l627.4-627.5l-175.8-175.8L1034.3,1389.2z"/>
</g>
<g>
	
		<linearGradient id="SVGID_1_" gradientUnits="userSpaceOnUse" x1="721.7584" y1="4411.9248" x2="1774.6771" y2="2588.2158" gradientTransform="matrix(1 0 0 -1 0 4750)">
		<stop  offset="0" style="stop-color:#23F2AC"/>
		<stop  offset="1" style="stop-color:#23D0F2"/>
	</linearGradient>
	<path class="st2" d="M1209.2,2167.9l-213,107.3c-42.6,21.5-94.4,4.6-116.2-37.8l-114.8-223.2c-12.2-23.6-34.5-40.4-60.7-45.4
		l-237.2-45.7c-44.9-8.7-75.3-50.7-69.6-96.1l32.9-259.7c3.1-25.1-4.7-50.4-21.7-69.2L237,1308.4c-30-33-30-83.4,0-116.4
		l171.9-189.8c17-18.7,25-44,21.7-69.2l-32.9-259.7c-5.7-45.4,24.7-87.4,69.6-96.1l237.2-45.8c26.1-5,48.5-21.7,60.7-45.4
		l114.8-223.4c21.7-42.4,73.6-59.2,116.2-37.8l213,107.3c24.5,12.3,53.4,12.3,78,0l213-107.5c42.6-21.5,94.4-4.6,116.2,37.8
		l114.8,223.2c12.2,23.6,34.5,40.4,60.7,45.4l237.2,45.8c44.9,8.7,75.3,50.7,69.6,96.1l-32.9,259.7c-3.1,25.1,4.7,50.4,21.7,69.2
		l171.9,189.8c30,33,30,83.4,0,116.4l-171.9,189.8c-17,18.7-25,44-21.7,69.2l32.9,259.7c5.7,45.4-24.7,87.4-69.6,96.1l-237.2,45.8
		c-26.1,5-48.5,21.7-60.7,45.4l-114.8,223.3c-21.7,42.4-73.6,59.2-116.2,37.8l-213-107.3C1262.7,2155.6,1233.7,2155.6,1209.2,2167.9
		z"/>
	<path class="st0" d="M1064.3,1365.9l-169.6-169.8L745,1345.8l169.6,169.8l-0.3,0.3l149.6,149.5l0.3-0.3l0.3,0.3l149.5-149.7
		l-0.3-0.3l534-533.9l-149.5-149.6L1064.3,1365.9z"/>
</g>
</svg>
