<?xml version="1.0" encoding="utf-8"?>
<!-- Generator: Adobe Illustrator 24.2.3, SVG Export Plug-In . SVG Version: 6.00 Build 0)  -->
<svg version="1.1" id="Layer_1" xmlns="http://www.w3.org/2000/svg" xmlns:xlink="http://www.w3.org/1999/xlink" x="0px" y="0px"
	 viewBox="0 0 482 477" style="enable-background:new 0 0 482 477;" xml:space="preserve">
<style type="text/css">
	.st0{fill:#FFFFFF;}
</style>
<linearGradient id="myGradient" gradientTransform="rotate(300)">
	<stop stop-color="#23f2ac" />
	<stop stop-color="#23d0f2" />
</linearGradient>
<path  class="st0" d="M63.7,238.7l177.8,177.8l-0.7,0.7c0.4-0.4,1.1-0.4,1.5,0l-0.7-0.7l59.3-59.3l59.3,59.3l-59.3,59.3l-0.7-0.7
	c0.4,0.4,0.4,1.1,0,1.5c-0.2,0.2-0.6,0.4-0.7,0.4H183.8c-0.4,0-0.6-0.2-0.7-0.4l0,0c-0.4-0.4-0.4-1.1,0-1.5l-0.7,0.7l-178-178
	l0.7-0.7c-0.4,0.4-1.1,0.4-1.5,0c-0.2-0.2-0.4-0.6-0.4-0.7V180.8c0-0.4,0.2-0.6,0.4-0.7l0,0c0.4-0.4,1.1-0.4,1.5,0l-0.7-0.7
	L63.7,120l59.3,59.3L63.7,238.7l-0.7-0.7c0.4,0.4,0.4,1.1,0,1.5L63.7,238.7z"/>
<path class="st0" d="M419.5,238.5l-177.8-178l0.7-0.7c-0.4,0.4-1.1,0.4-1.5,0l0.7,0.7l-59.3,59.3L123,60.5l59.3-59.3l0.7,0.7
	c-0.4-0.4-0.4-1.1,0-1.5c0.2-0.2,0.6-0.4,0.7-0.4h115.5c0.4,0,0.6,0.2,0.7,0.4l0,0c0.4,0.4,0.4,1.1,0,1.5l0.7-0.7l177.8,178
	l-0.7,0.7c0.4-0.4,1.1-0.4,1.5,0c0.2,0.2,0.4,0.6,0.4,0.7v115.5c0,0.4-0.2,0.6-0.4,0.7l0,0c-0.4,0.4-1.1,0.4-1.5,0l0.7,0.7
	L419.3,357L360,297.7L419.5,238.5l0.7,0.7c-0.4-0.4-0.4-1.1,0-1.5L419.5,238.5z"/>
</svg>
