<?xml version="1.0" encoding="utf-8"?>
<!-- Generator: Adobe Illustrator 24.2.3, SVG Export Plug-In . SVG Version: 6.00 Build 0)  -->
<svg version="1.1" id="Layer_1" xmlns="http://www.w3.org/2000/svg" xmlns:xlink="http://www.w3.org/1999/xlink" x="0px" y="0px"
	 viewBox="0 0 2500 2500" style="enable-background:new 0 0 2500 2500;" xml:space="preserve">
<style type="text/css">
	.st0{fill-rule:evenodd;clip-rule:evenodd;fill:#EEEEEE;}
	.st1{fill-rule:evenodd;clip-rule:evenodd;fill:url(#SVGID_1_);}
</style>
<g>
	<path class="st0" d="M1204.1,2328.5l-250.2,126c-50,25.2-110.9,5.3-136.5-44.4l-134.9-262.2c-14.3-27.8-40.6-47.5-71.3-53.4
		l-278.8-53.8c-52.8-10.2-88.5-59.6-81.8-112.9l38.7-305.1c3.7-29.5-5.6-59.2-25.6-81.2l-202-223c-35.2-38.8-35.2-98,0-136.8
		l202-223c20-22,29.3-51.7,25.6-81.2l-38.7-305.1c-6.8-53.3,29-102.7,81.8-112.9l278.8-53.8c30.7-5.9,57-25.6,71.3-53.4L817.5,89.9
		C843,40.1,904,20.3,954,45.5l250.2,126c28.8,14.5,62.8,14.5,91.7,0l250.2-126c50-25.2,110.9-5.3,136.5,44.4l134.9,262.2
		c14.3,27.8,40.6,47.5,71.3,53.4l278.8,53.8c52.8,10.2,88.5,59.6,81.8,112.9l-38.7,305.1c-3.7,29.5,5.6,59.2,25.6,81.2l202,223
		c35.2,38.8,35.2,98,0,136.8l-202,223c-20,22-29.3,51.7-25.6,81.2l38.7,305.1c6.8,53.3-29,102.7-81.8,112.9l-278.8,53.8
		c-30.7,5.9-57,25.6-71.3,53.4l-134.9,262.2c-25.6,49.8-86.5,69.6-136.5,44.4l-250.2-126C1266.9,2314,1232.9,2314,1204.1,2328.5z"/>
</g>
<linearGradient id="SVGID_1_" gradientUnits="userSpaceOnUse" x1="961.8826" y1="752.2805" x2="1538.1128" y2="1750.3405">
	<stop  offset="0" style="stop-color:#23F2AC"/>
	<stop  offset="1" style="stop-color:#23D0F2"/>
</linearGradient>
<path class="st1" d="M1898.6,979.4c-139.4-150.7-365.4-150.7-504.8,0L1250,1134.8l-143.8-155.4c-69.7-75.4-161.1-113-252.4-113
	c-91.4,0-182.7,37.7-252.4,113c-69.5,75.1-104.2,173.5-104.2,271.9c0,98.4,34.7,196.8,104.2,271.9c139.4,150.7,365.4,150.7,504.8,0
	l143.8-155.4l143.7,155.4c69.7,75.4,161.1,113,252.4,113c91.4,0,182.7-37.7,252.4-113c69.4-75.1,104.2-173.5,104.2-271.9
	C2002.8,1152.9,1968,1054.5,1898.6,979.4z M994.7,1410.8c-82.9,89.7-217.4,89.7-300.3,0c-40.7-44-61.1-101.8-61.1-159.5
	c0-57.7,20.4-115.5,61.1-159.5c41.5-44.8,95.8-67.2,150.2-67.2c54.3,0,108.7,22.4,150.2,67.2l147.5,159.5L994.7,1410.8z
	 M1805,1410.8c-41.5,44.8-95.8,67.2-150.2,67.2c-54.3,0-108.7-22.4-150.2-67.2l-147.5-159.5l0.3-0.3l147.2-159.2
	c82.9-89.7,217.4-89.7,300.3,0c40.7,44,61.1,101.8,61.1,159.5C1866.1,1309,1845.7,1366.8,1805,1410.8z"/>
</svg>
