<?xml version="1.0" encoding="utf-8"?>
<!-- Generator: Adobe Illustrator 24.2.3, SVG Export Plug-In . SVG Version: 6.00 Build 0)  -->
<svg version="1.1" id="Layer_1" xmlns="http://www.w3.org/2000/svg" xmlns:xlink="http://www.w3.org/1999/xlink" x="0px" y="0px"
	 viewBox="0 0 482 477" style="enable-background:new 0 0 482 477;" xml:space="preserve">
<style type="text/css">
	.st0{fill:url(#SVGID_1_);}
	.st1{fill:url(#SVGID_2_);}
</style>
<linearGradient id="SVGID_1_" gradientUnits="userSpaceOnUse" x1="546.4906" y1="601.7753" x2="487.2546" y2="380.7034" gradientTransform="matrix(0.7071 -0.7071 -0.7071 -0.7071 177.446 990.8376)">
	<stop  offset="0" style="stop-color:#52F486"/>
	<stop  offset="1" style="stop-color:#1793F9"/>
</linearGradient>
<path class="st0" d="M145.8,238.2l95.3,95.3l-0.4,0.4c0.2-0.2,0.6-0.2,0.8,0l-0.4-0.4l31.8-31.8l31.8,31.8l-31.8,31.8l-0.4-0.4
	c0.2,0.2,0.2,0.6,0,0.8c-0.1,0.1-0.3,0.2-0.4,0.2h-61.9c-0.2,0-0.3-0.1-0.4-0.2l0,0c-0.2-0.2-0.2-0.6,0-0.8l-0.4,0.4L114,269.9
	l0.4-0.4c-0.2,0.2-0.6,0.2-0.8,0c-0.1-0.1-0.2-0.3-0.2-0.4v-61.9c0-0.2,0.1-0.3,0.2-0.4l0,0c0.2-0.2,0.6-0.2,0.8,0l-0.4-0.4
	l31.8-31.8l31.8,31.8L145.8,238.2l-0.4-0.4c0.2,0.2,0.2,0.6,0,0.8L145.8,238.2z"/>
<linearGradient id="SVGID_2_" gradientUnits="userSpaceOnUse" x1="667.3376" y1="593.7579" x2="608.1144" y2="372.7344" gradientTransform="matrix(0.7071 -0.7071 -0.7071 -0.7071 177.446 990.8376)">
	<stop  offset="0" style="stop-color:#52F486"/>
	<stop  offset="1" style="stop-color:#1793F9"/>
</linearGradient>
<path class="st1" d="M336.5,238.1l-95.3-95.4l0.4-0.4c-0.2,0.2-0.6,0.2-0.8,0l0.4,0.4l-31.8,31.8l-31.8-31.8l31.8-31.8l0.4,0.4
	c-0.2-0.2-0.2-0.6,0-0.8c0.1-0.1,0.3-0.2,0.4-0.2h61.9c0.2,0,0.3,0.1,0.4,0.2l0,0c0.2,0.2,0.2,0.6,0,0.8l0.4-0.4l95.3,95.4l-0.4,0.4
	c0.2-0.2,0.6-0.2,0.8,0c0.1,0.1,0.2,0.3,0.2,0.4V269c0,0.2-0.1,0.3-0.2,0.4l0,0c-0.2,0.2-0.6,0.2-0.8,0l0.4,0.4l-31.8,31.8
	l-31.8-31.8L336.5,238.1l0.4,0.4c-0.2-0.2-0.2-0.6,0-0.8L336.5,238.1z"/>
</svg>
