<svg id="Layer_1" data-name="Layer 1" xmlns="http://www.w3.org/2000/svg" viewBox="0 0 459.68 436.99"><defs><style>.cls-1{fill:#fff;}</style></defs><path class="cls-1" d="M307.76,227.15c-3.84.12-5.09-1.2-6.13-4.7-6.93-23.53-14.14-47-21.26-70.46-.32-1-.72-2-1.2-3.37-1.27,1.1-1.38,2.44-1.75,3.61Q262.67,199,248,245.83c-.77,2.45-1.8,3.36-4.51,3.35-35.82-.09-71.63,0-107.44,0a16.27,16.27,0,0,0-2.21,0c-.9.12-2.13-.56-2.62.59-.38.87.62,1.5,1.1,2.16,4.3,5.95,8.56,11.92,13,17.8q19.49,26,39.05,52c1.67,2.23,3.7,4.24,4.78,6.89l0-.05c-5.24-2.7-9.69-6.54-14.41-10q-62-45-123.94-90.12c-.46-.33-.87-.71-1.76-1.45h2.73q34.4-.19,68.78-.39c33.35-.16,66.71-.35,100.06-.35,3.26,0,4.34-1.2,5.26-4q25.85-79.75,51.91-159.45c.24-.73.12-1.74,1.45-2.4,2.17,6.72,4.32,13.37,6.48,20q17.26,53.2,34.54,106.42c1.53,4.72,2.91,9.48,4.32,14.24.45,1.51,3.65,25.35,5.51,25.46M136.69,497.19c1.33,0,2.26-.88,3.29-1.49q37.53-22.33,75-44.69c20.32-12.11,40.68-24.16,61-36.33a5.6,5.6,0,0,1,6-.36c18.47,8.64,37,17.13,55.56,25.62,2.64,1.21,5.16,2.82,9.05,3.59-22.16-16.09-43.53-31.56-64.81-47.16-2.09-1.54-3.6-1.71-5.9-.57q-40.57,20.1-81.25,40c-5.63,2.77-11.28,5.48-17,8.26a4.6,4.6,0,0,1-.23-1.12c6.42-31.47,12.81-62.93,19.37-94.36.55-2.65,0-3.92-2.16-5.33Q157,319.2,119.56,295c-.8-.51-1.68-.87-2.53-1.3a2.46,2.46,0,0,0,.9,1.33c19.71,16.35,39.4,32.75,59.2,49,2.43,2,2.67,3.73,1.83,6.57-5.29,17.91-10.37,35.88-15.54,53.82Q150,450.85,136.6,497.27Zm52.48-168.61c0,.31-.06.79.49.35l-.54-.3ZM136.61,497.26a.61.61,0,0,1,0,.13l.05-.2Zm87.86-270.79c1.86-.11,8.29-23.87,8.74-25.38,1.41-4.76,2.79-9.52,4.32-14.24q17.24-53.22,34.54-106.42c2.16-6.65,4.31-13.3,6.48-20,1.33.66,1.21,1.67,1.45,2.4q26,79.71,51.91,159.45c.92,2.84,2,4,5.26,4,33.35,0,66.71.19,100.06.35q34.39.16,68.78.39h2.73c-.89.74-1.3,1.12-1.76,1.45Q445,273.57,383,318.61c-4.72,3.43-9.17,7.27-14.41,10l.05.05c1.08-2.65,3.11-4.66,4.78-6.89q19.5-26,39.05-52c4.4-5.88,8.66-11.85,13-17.8.48-.66,1.48-1.29,1.1-2.16-.49-1.15-1.72-.47-2.62-.59a16.27,16.27,0,0,0-2.21,0c-35.81,0-71.62-.09-107.44,0-2.71,0-6.61,1.09-7.38-1.35-9.74-31.22-16.71-64.41-26.54-95.6-.37-1.17-.48-2.51-1.75-3.61-.48,1.34-.88,2.34-1.2,3.37-7.12,23.48-22.49,70.31-29.42,93.84-1,3.51,5.87-18.56,2-18.68" transform="translate(-49.06 -60.41)"/></svg>